# xmcd
#
# Track frame offsets: 
#        150
#        20072
#        37001
#        51274
#        68447
#        81070
#        93102
#        106128
#        121805
#        142706
#
# Disc length: 2214 seconds
#
# Revision: 0
# Processed by: cddbd v1.5.2PL0 Copyright (c) Steve Scherf et al.
# Submitted via: ExactAudioCopyFreeDBPlugin 1.0
#
DISCID=7308a40a
DTITLE=Ria Reece Band - Ria Reece Band
DYEAR=2013
DGENRE=R&B
TTITLE0=You Can't Save Her
TTITLE1=I Just Want to Make Love To You
TTITLE2=I'd Rather Go Blind
TTITLE3=All Of Us
TTITLE4=Something's Got A Hold On Me
TTITLE5=At Love
TTITLE6=Tell Mama
TTITLE7=The Road
TTITLE8=Whisper
TTITLE9=The Rising Sun
EXTD=
EXTT0=
EXTT1=
EXTT2=
EXTT3=
EXTT4=
EXTT5=
EXTT6=
EXTT7=
EXTT8=
EXTT9=
PLAYORDER=
